<?xml version="1.0" encoding="utf-8"?>
<!-- Svg Vector Icons : http://www.onlinewebfonts.com/icon -->
<!DOCTYPE svg PUBLIC "-//W3C//DTD SVG 1.1//EN" "http://www.w3.org/Graphics/SVG/1.1/DTD/svg11.dtd">
<svg version="1.1" xmlns="http://www.w3.org/2000/svg" xmlns:xlink="http://www.w3.org/1999/xlink" x="0px" y="0px" viewBox="0 0 1000 1000" enable-background="new 0 0 1000 1000" xml:space="preserve">
<metadata> Svg Vector Icons : http://www.onlinewebfonts.com/icon </metadata>
<g><g transform="translate(0.000000,512.000000) scale(0.100000,-0.100000)"><path d="M1757.7,4998.7c-42.3-13.4-113.3-44.2-159.4-67.2c-130.6-67.2-547.3-412.9-837.3-693.3c-447.5-435.9-641.4-714.4-658.7-948.7c-19.2-232.4,80.7-733.6,217-1104.2C674.6,1236.7,1362.1,195.9,2406.8-965.9C2729.4-1325,3559-2154.6,3918.1-2477.2C5053-3497,6065.1-4174.8,7000.3-4537.8c395.6-153.6,973.6-270.8,1204.1-243.9c124.8,15.3,314.9,119,516.6,282.3c353.4,284.2,996.7,1014,1119.6,1267.4c55.7,115.2,59.5,140.2,59.5,326.5c0,180.5-5.8,211.2-51.9,297.6c-26.9,53.8-74.9,119.1-105.6,147.9c-67.2,63.3-1939.6,1307.8-2070.1,1375c-80.7,42.2-121,49.9-259.3,49.9c-251.6,0-338-34.6-1050.4-441.7l-318.8-180.5l-182.4,136.4C5506.2-1254,5129.9-914.1,4549.9-334.1C3970,247.7,3630.1,622.2,3363.1,979.4l-138.3,182.4l222.8,389.8c295.7,522.3,349.5,633.7,386,804.6c36.5,170.9,25,313-32.7,428.2c-82.6,159.4-1355.8,2060.5-1415.3,2110.5C2245.5,5012.1,1953.6,5060.1,1757.7,4998.7z M2111.1,4624.2c32.6-32.7,727.8-1075.4,1190.6-1784c169-259.2,178.6-278.4,169-353.3c-13.4-101.8-103.7-282.3-416.7-831.5c-138.3-242-261.2-455.1-270.8-474.3c-32.7-57.6,291.9-505,737.4-1013.9c107.5-121,449.4-476.2,762.4-787.4c681.7-683.6,1140.7-1086.9,1567-1375l184.4-124.8l59.5,38.4c140.2,84.5,768.1,437.9,965.9,543.5c144,74.9,245.8,117.1,307.3,122.9l94.1,11.5l1017.8-676c560.7-370.6,1029.3-689.4,1042.7-706.7c32.7-44.2,28.8-155.6-13.4-243.9c-113.3-247.7-877.6-1098.4-1154.1-1282.8c-99.9-67.2-113.3-71.1-263.1-71.1c-812.3,0-2060.5,637.6-3352.9,1714.9c-812.3,677.9-1845.4,1711-2523.3,2523.3C1135.5,1148.4,511.4,2369.7,498,3205.1c-1.9,126.7,3.8,157.5,51.9,238.1c132.5,228.5,921.8,954.4,1250.1,1152.2C1928.6,4672.2,2051.5,4683.7,2111.1,4624.2z"/></g></g>
</svg>