<?xml version="1.0" encoding="utf-8"?>
<!-- Svg Vector Icons : http://www.onlinewebfonts.com/icon -->
<!DOCTYPE svg PUBLIC "-//W3C//DTD SVG 1.1//EN" "http://www.w3.org/Graphics/SVG/1.1/DTD/svg11.dtd">
<svg version="1.1" xmlns="http://www.w3.org/2000/svg" xmlns:xlink="http://www.w3.org/1999/xlink" x="0px" y="0px" viewBox="0 0 1000 1000" enable-background="new 0 0 1000 1000" xml:space="preserve">
<metadata> Svg Vector Icons : http://www.onlinewebfonts.com/icon </metadata>
<g><g transform="translate(0.000000,511.000000) scale(0.100000,-0.100000)"><path d="M6420.9,4953.8c-43.4-43.4-158.2-316.5-403.2-969.8l-339.4-913.6h-385.4h-385.4l-28.1,125c-158.2,691.6-832,1184.2-1561.9,1143.3c-803.9-43.4-1429.2-706.9-1429.2-1510.8c0-112.3,17.9-278.2,38.3-367.5c86.8-365,367.5-745.2,686.5-931.5c91.9-53.6,168.4-112.3,168.4-130.2s-23-145.5-53.6-283.3c-176.1-839.6-10.2-1618,484.9-2276.5c436.4-576.8,1100-954.5,1873.2-1066.8l94.4-12.8v-1069.3v-1071.9h-663.5H3851l-61.2-63.8c-84.2-81.7-84.2-199.1,0-280.7l61.2-63.8h1533.8h1533.8l61.3,63.8c40.8,38.3,63.8,91.9,63.8,140.4s-23,102.1-63.8,140.4l-61.3,63.8h-666.1H5589v1069.3V-2243l58.7,15.3c30.6,7.6,86.8,15.3,122.5,15.3c107.2,0,444.1,94.4,673.8,188.9c454.3,183.7,946.8,589.5,1225,1008.1c153.1,232.2,303.7,576.8,372.6,855c76.6,298.6,91.9,760.5,38.3,1079.5c-66.3,400.7-490,2049.3-535.9,2097.8c-38.3,35.7-132.7,40.8-732.4,48.5l-691.6,7.7l15.3,56.1c7.7,30.6,132.7,372.6,278.2,758l265.4,701.8l405.8,12.8c222,7.7,423.7,23,449.2,33.2c22.9,12.8,56.2,56.2,71.4,97c38.3,86.8-2.5,211.8-79.1,252.7c-25.5,15.3-268,25.5-543.6,25.5C6502.6,5010,6482.2,5007.4,6420.9,4953.8z M3687.7,3902.4c311.4-81.7,569.1-293.5,714.6-584.4c48.5-97,89.3-194,89.3-211.8c0-28.1-107.2-35.7-574.2-35.7c-607.4,0-706.9-15.3-737.5-120c-7.7-25.5-71.5-290.9-142.9-589.5l-132.7-541.1l-79.1,43.4c-145.5,84.2-344.5,306.2-428.8,484.9c-74,150.6-86.8,206.7-94.4,416c-15.3,375.2,91.9,638,359.8,885.6c127.6,117.4,324.1,227.1,469.6,260.3C3279.3,3945.8,3544.8,3940.7,3687.7,3902.4z M7263.1,2593.2c7.7-40.8,94.4-380.3,191.4-760.5c216.9-862.6,252.7-1054,252.7-1365.4c0-1013.2-681.4-1914.1-1671.6-2210.1c-311.4-91.9-775.8-112.3-1087.2-48.5c-482.3,97-842.2,290.9-1199.5,648.2c-579.3,579.3-793.7,1288.8-635.5,2108c30.6,150.6,132.7,584.4,229.7,964.7c99.5,382.8,178.6,701.8,178.6,714.6c0,10.2,837.1,17.9,1863,17.9h1863L7263.1,2593.2z"/></g></g>
</svg>