<?xml version="1.0" encoding="utf-8"?>
<!-- Svg Vector Icons : http://www.onlinewebfonts.com/icon -->
<!DOCTYPE svg PUBLIC "-//W3C//DTD SVG 1.1//EN" "http://www.w3.org/Graphics/SVG/1.1/DTD/svg11.dtd">
<svg version="1.1" xmlns="http://www.w3.org/2000/svg" xmlns:xlink="http://www.w3.org/1999/xlink" x="0px" y="0px" viewBox="0 0 1000 1000" enable-background="new 0 0 1000 1000" xml:space="preserve">
<metadata> Svg Vector Icons : http://www.onlinewebfonts.com/icon </metadata>
<g><path d="M442,268c-7,45-54.7,87.2-60.1,91.9c-3.9,3.3-8.6,4.9-13.3,4.9c-5.8,0-11.5-2.4-15.5-7.1c-7.4-8.6-6.4-21.5,2.2-28.9c11.5-10,42.4-41.5,46.4-67.1c3.4-22-5.6-31.4-20.5-46.9c-12.5-13-28-29.1-32.7-54.8c-14.6-81,53.3-134,56.2-136.2c9-6.9,21.8-5.2,28.7,3.8c6.8,9,5.2,21.8-3.8,28.6c-0.3,0.3-13.6,10.7-25.1,28.2c-14.6,22.2-19.9,45.1-15.7,68.2c2.4,13.5,11,22.4,21.9,33.7C427.5,204,448.6,225.9,442,268z"/><path d="M593.2,268c-7,45-54.7,87.2-60.1,91.9c-3.9,3.3-8.6,4.9-13.3,4.9c-5.8,0-11.5-2.4-15.5-7.1c-7.4-8.6-6.4-21.5,2.2-28.9c11.5-10,42.4-41.5,46.4-67.1c3.4-22-5.6-31.4-20.5-46.9c-12.5-13-28-29.1-32.7-54.8c-14.6-81,53.3-134,56.2-136.2c9-6.9,21.8-5.2,28.7,3.8c6.8,9,5.2,21.8-3.8,28.6c-0.3,0.2-13.6,10.7-25.1,28.2c-14.6,22.2-19.9,45.1-15.7,68.2c2.4,13.5,11,22.4,21.9,33.7C578.7,204,599.8,225.9,593.2,268z"/><path d="M290.8,268c-7,45-54.7,87.2-60.2,91.9c-3.9,3.3-8.6,4.9-13.3,4.9c-5.8,0-11.5-2.4-15.5-7.1c-7.4-8.6-6.4-21.5,2.2-28.9c11.5-10,42.4-41.5,46.4-67.1c3.4-22-5.6-31.4-20.5-46.9c-12.5-13-28-29.1-32.7-54.8c-14.6-81,53.3-134,56.2-136.2c9-6.9,21.8-5.2,28.7,3.8c6.9,9,5.1,21.8-3.8,28.6c-0.3,0.3-13.6,10.7-25.1,28.2c-14.6,22.2-19.9,45.1-15.7,68.2c2.4,13.5,11,22.4,21.9,33.7C276.3,204,297.4,225.9,290.8,268z"/><path d="M869.3,472.6c-31.2,0-59.6,11.9-81.1,31.4v-76.5c0-11.3-9.2-20.5-20.5-20.5H30.5c-11.3,0-20.5,9.2-20.5,20.5v224.8c0,62.5,11.1,118.5,33,166.7c17.7,39,42.5,72.7,73.7,100.4c53.2,47.2,106.5,60.1,108.7,60.6c1.5,0.4,3.1,0.5,4.7,0.5h307c1.3,0,2.5-0.1,3.8-0.4c2.5-0.5,63.1-12.2,123.8-58c35.9-27,64.5-60.3,85-99c25.5-48,38.4-104.2,38.4-167v-55.6c0.8-2.3,1.3-4.7,1.3-7.2c0-44,35.8-79.8,79.8-79.8c44,0,79.8,35.8,79.8,79.8c0,44-35.8,79.8-79.8,79.8c-11.3,0-20.5,9.2-20.5,20.5c0,11.3,9.2,20.5,20.5,20.5c66.5,0,120.7-54.1,120.7-120.7C990,526.8,935.9,472.6,869.3,472.6z M747.3,656.1c0,55.6-11.2,105-33.2,146.8c-17.5,33.3-42,62-72.7,85.4c-48,36.6-97,49-106.5,51.1H232.8c-9.3-2.6-48.8-15.3-88.9-50.8c-26.8-23.8-48.2-53-63.6-86.7C60.8,759.2,51,708.8,51,652.3V448h696.3V656.1z"/></g>
</svg>