<?xml version="1.0" encoding="utf-8"?>
<!-- Svg Vector Icons : http://www.onlinewebfonts.com/icon -->
<!DOCTYPE svg PUBLIC "-//W3C//DTD SVG 1.1//EN" "http://www.w3.org/Graphics/SVG/1.1/DTD/svg11.dtd">
<svg version="1.1" xmlns="http://www.w3.org/2000/svg" xmlns:xlink="http://www.w3.org/1999/xlink" x="0px" y="0px" viewBox="0 0 1000 1000" enable-background="new 0 0 1000 1000" xml:space="preserve">
<metadata> Svg Vector Icons : http://www.onlinewebfonts.com/icon </metadata>
<g><g><g id="Watch"><g><path d="M500,10C229.8,10,10,229.8,10,500s219.8,490,490,490c270.2,0,490-219.8,490-490S770.2,10,500,10z M500,928.8C263.6,928.8,71.3,736.4,71.3,500C71.3,263.6,263.6,71.3,500,71.3c236.4,0,428.8,192.3,428.8,428.8C928.8,736.4,736.4,928.8,500,928.8z M580,544.1c7.4-13.1,11.8-28.1,11.8-44.1c0-39.9-25.7-73.5-61.3-86.2V163.1c0-16.9-13.7-30.6-30.6-30.6s-30.6,13.7-30.6,30.6v250.7c-35.6,12.7-61.3,46.4-61.3,86.2c0,50.7,41.2,91.9,91.9,91.9c12.1,0,23.7-2.5,34.3-6.8l127.8,127.8c6,6,13.8,9,21.7,9s15.7-3,21.7-9c12-12,12-31.3,0-43.3L580,544.1z M500,530.6c-16.9,0-30.6-13.7-30.6-30.6c0-16.9,13.7-30.6,30.6-30.6s30.6,13.8,30.6,30.6C530.6,516.9,516.9,530.6,500,530.6z"/></g></g></g><g></g><g></g><g></g><g></g><g></g><g></g><g></g><g></g><g></g><g></g><g></g><g></g><g></g><g></g><g></g></g>
</svg>