<?xml version="1.0" encoding="utf-8"?>
<!-- Svg Vector Icons : http://www.onlinewebfonts.com/icon -->
<!DOCTYPE svg PUBLIC "-//W3C//DTD SVG 1.1//EN" "http://www.w3.org/Graphics/SVG/1.1/DTD/svg11.dtd">
<svg version="1.1" xmlns="http://www.w3.org/2000/svg" xmlns:xlink="http://www.w3.org/1999/xlink" x="0px" y="0px" viewBox="0 0 1000 1000" enable-background="new 0 0 1000 1000" xml:space="preserve">
<metadata> Svg Vector Icons : http://www.onlinewebfonts.com/icon </metadata>
<g><g transform="translate(0.000000,511.000000) scale(0.100000,-0.100000)"><path d="M2234.7,3947.7c-26.8-26.8-30.6-147.5-30.6-1039.9V1896.7l-114.9-11.5c-132.1-15.3-273.8-80.4-383-178.1c-82.3-74.7-191.5-273.8-191.5-350.4c0-78.5-21.1-93.8-153.2-107.2c-499.8-51.7-902-321.7-1112.6-746.9C109,219.2,111,238.3,101.4-742.2c-3.8-616.6,0-923,15.3-1024.5c80.4-505.6,436.6-923,928.8-1085.8c136-44,191.5-51.7,494.1-59.4c235.6-5.7,339-15.3,339-30.7c0-11.5-26.8-187.7-61.3-390.7c-61.3-365.8-63.2-371.5-26.8-398.3c32.6-23,501.7-26.8,3221.1-26.8c2868.7,0,3186.6,3.8,3213.4,30.6c17.2,15.3,30.6,30.7,30.6,32.6c0,1.9-30.6,172.4-67,377.3s-67,379.2-67,384.9c0,7.7,153.2,17.2,340.9,21.1c300.7,7.6,356.2,15.3,492.2,59.4c496,164.7,848.3,580.3,928.8,1101.1c15.3,88.1,19.2,436.6,15.3,1003.5c-9.6,972.8-7.6,963.3-153.2,1260.1c-61.3,128.3-113,195.3-243.2,327.5c-248.9,249-474.9,358.1-831.1,402.2l-181.9,23l-11.5,82.4c-36.4,270-293,509.4-576.4,538.1l-105.3,11.5v1011.1c0,892.4-3.8,1013-30.6,1039.9c-26.8,26.8-304.5,30.6-2765.3,30.6S2261.5,3974.5,2234.7,3947.7z M7623.6,2532.5V1259H5000H2376.4v1273.5V3806H5000h2623.6V2532.5z M2204.1,1402.6V1259h-172.4c-155.1,0-172.4,3.8-172.4,36.4c0,97.7,183.8,250.9,300.7,250.9C2202.2,1546.3,2204.1,1538.6,2204.1,1402.6z M7998.9,1488.8c59.4-38.3,141.7-158.9,141.7-210.6c0-11.5-65.1-19.2-172.4-19.2h-172.4v145.5V1552l67-11.5C7901.2,1534.8,7962.5,1509.9,7998.9,1488.8z M8789.8,866.4c252.8-67,515.1-268.1,630-482.6c128.3-243.2,128.3-247,128.3-1221.8c0-859.9-1.9-884.7-42.1-1016.9c-97.7-310.2-340.9-555.4-654.9-662.6c-111.1-38.3-164.7-42.1-461.5-44h-335.1l-61.3,335.1c-32.6,183.8-61.3,346.6-61.3,360c-1.9,15.3,26.8,23,82.4,23c63.2,0,99.6,11.5,139.8,46l53.6,45.9l5.7,455.8c5.7,496-1.9,545.8-93.8,591.7c-80.4,42.1-6158.7,42.1-6239.1,0c-91.9-46-99.6-95.7-93.8-591.7l5.7-455.8l53.6-45.9c40.2-34.5,76.6-46,139.8-46c67,0,84.3-5.7,84.3-32.6c0-19.2-26.8-176.2-57.5-350.4c-32.6-174.3-57.5-323.6-57.5-333.2c0-9.6-157-11.5-348.5-5.7c-377.3,9.6-474.9,30.7-664.5,141.7c-203,118.7-375.3,337-448.1,568.8c-40.2,132.1-42.1,157-42.1,1016.9c0,800.5,3.8,890.5,34.5,995.8C595.5,510.2,878.9,786,1214,868.3c78.5,19.2,905.8,23,3786,24.9C8138.7,895.2,8701.7,891.3,8789.8,866.4z M7851.5-1205.6c-1.9-124.5-5.8-151.3-17.2-107.2c-30.6,132.1,222.1,120.6-2834.2,120.6c-2250.1,0-2776.8-3.8-2792.1-24.9c-11.5-13.4-26.8-63.2-34.5-109.2c-13.4-76.6-17.2-80.4-28.7-38.3c-7.7,26.8-13.4,111.1-15.3,187.7l-1.9,137.9h2863h2863L7851.5-1205.6z M7671.5-1364.6c3.8-5.7,90-480.7,191.5-1055.2c101.5-572.6,187.7-1070.5,193.4-1103.1l11.5-63.2H5000H1932.1l11.5,51.7c5.7,30.6,93.8,522.8,193.4,1097.3c101.5,574.5,187.7,1053.3,191.5,1064.7C2336.2-1347.3,7656.1-1339.7,7671.5-1364.6z"/><path d="M1846,178.9c-74.7-65.1-74.7-187.7,0-252.8l53.6-46H4437h2537.4l46,47.9c67,65.1,67,183.8,0,249l-46,47.9H4437H1899.6L1846,178.9z"/><path d="M7552.7,178.9c-42.1-36.4-53.6-61.3-53.6-126.4c0-65.1,11.5-90,53.6-126.4c51.7-44.1,67-46,300.7-46c233.6,0,249,1.9,300.7,46c42.1,36.4,53.6,61.3,53.6,126.4c0,65.1-11.5,90-53.6,126.4c-51.7,44-67,46-300.7,46C7619.7,224.9,7604.4,223,7552.7,178.9z"/></g></g>
</svg>