<?xml version="1.0" encoding="utf-8"?>
<!-- Generator: Adobe Illustrator 20.0.0, SVG Export Plug-In . SVG Version: 6.00 Build 0)  -->
<svg version="1.1"  xmlns="http://www.w3.org/2000/svg" xmlns:xlink="http://www.w3.org/1999/xlink" x="0px" y="0px"
	 viewBox="0 0 47.1 50" style="enable-background:new 0 0 47.1 50;" xml:space="preserve">
<style type="text/css">
	.st0{opacity:0.5;}
	.st1{fill:url(#SVGID_1_);}
	.st2{fill:url(#SVGID_2_);}
	.st3{fill:url(#SVGID_3_);}
	.st4{fill:url(#SVGID_4_);}
</style>
<g>
	<g class="st0">
		<linearGradient id="SVGID_1_" gradientUnits="userSpaceOnUse" x1="15.6191" y1="5.0519" x2="30.9743" y2="5.0519">
			<stop  offset="0" style="stop-color:#662D91"/>
			<stop  offset="1" style="stop-color:#262261"/>
		</linearGradient>
		<path class="st1" d="M30.6,0.4c-0.4-0.4-1-0.5-1.7-0.4c0,0-3.2,1-4.2,1.3c-0.7,0.2-1.9,0.2-2.5,0c-1.1-0.3-4.3-1.3-4.3-1.3
			C17-0.1,16.4,0,16,0.4c-0.4,0.4-0.5,1-0.3,1.7l2.4,7.4c0.1,0.3,0.4,0.5,0.7,0.5h9.4c0.4,0,0.7-0.2,0.8-0.6l1.9-7.4
			C31.1,1.5,31,0.9,30.6,0.4z"/>
	</g>
	<g class="st0">
		<linearGradient id="SVGID_2_" gradientUnits="userSpaceOnUse" x1="3.9957" y1="30.8343" x2="43.1095" y2="30.8343">
			<stop  offset="0" style="stop-color:#662D91"/>
			<stop  offset="1" style="stop-color:#262261"/>
		</linearGradient>
		<path class="st2" d="M33,17.3c-2.1-1.9-4-3.5-4-4.9c0-0.4-0.3-0.8-0.8-0.8h-9.4c-0.4,0-0.8,0.3-0.8,0.8c0,1.4-1.8,3-4,4.9
			C9.8,21.1,4,26.3,4,35.9C4,42.7,9.1,50,20.4,50h6.3c11.3,0,16.4-7.3,16.4-14.1C43.1,26.3,37.3,21.1,33,17.3z"/>
	</g>
	<g>
		<linearGradient id="SVGID_3_" gradientUnits="userSpaceOnUse" x1="17.2942" y1="10.886" x2="29.8106" y2="10.886">
			<stop  offset="0" style="stop-color:#662D91"/>
			<stop  offset="1" style="stop-color:#262261"/>
		</linearGradient>
		<path class="st3" d="M29.8,10.9c0,0.9-0.7,1.6-1.6,1.6h-9.4c-0.9,0-1.6-0.7-1.6-1.6l0,0c0-0.9,0.7-1.6,1.6-1.6h9.4
			C29.1,9.3,29.8,10,29.8,10.9L29.8,10.9z"/>
	</g>
	<linearGradient id="SVGID_4_" gradientUnits="userSpaceOnUse" x1="11.8183" y1="33.0881" x2="35.2865" y2="33.0881">
		<stop  offset="0" style="stop-color:#662D91"/>
		<stop  offset="1" style="stop-color:#262261"/>
	</linearGradient>
	<path class="st4" d="M23.6,21.4c-6.5,0-11.7,5.3-11.7,11.7s5.3,11.7,11.7,11.7s11.7-5.3,11.7-11.7S30,21.4,23.6,21.4z M23.6,31.9
		c2.9,0,4.7,1.7,4.7,3.9c0,1.9-2.3,3.4-4.3,3.8v0.5c0,0.6-0.9,1.2-1.5,1.2S21,40.8,21,40.1v-0.5c-2-0.4-3.2-1.9-3.2-3.8
		c0-0.6,0.9-1.2,1.5-1.2s1.3,0.5,1.3,1.2c0,0.7,1.3,1.6,2.8,1.6c1.6,0,2.8-0.8,2.8-1.6c0-0.7-1.1-1.6-2.7-1.6
		c-2.9,0-5.8-1.7-5.8-3.9c0-1.9,1.2-3.4,3.2-3.8V26c0-0.6,0.9-1.2,1.5-1.2S24,25.4,24,26v0.5c2,0.4,4.3,1.9,4.3,3.8
		c0,0.6-0.3,1.2-1,1.2s-1.1-0.5-1.1-1.2c0-0.7-1.1-1.6-2.7-1.6c-1.6,0-2.7,0.8-2.7,1.6C20.8,31.1,22,31.9,23.6,31.9z"/>
</g>
</svg>
