<?xml version="1.0" encoding="utf-8"?>
<!-- Svg Vector Icons : http://www.onlinewebfonts.com/icon -->
<!DOCTYPE svg PUBLIC "-//W3C//DTD SVG 1.1//EN" "http://www.w3.org/Graphics/SVG/1.1/DTD/svg11.dtd">
<svg version="1.1" xmlns="http://www.w3.org/2000/svg" xmlns:xlink="http://www.w3.org/1999/xlink" x="0px" y="0px" viewBox="0 0 1000 1000" enable-background="new 0 0 1000 1000" xml:space="preserve">
<metadata> Svg Vector Icons : http://www.onlinewebfonts.com/icon </metadata>
<g><g transform="translate(0.000000,363.000000) scale(0.100000,-0.100000)"><path d="M905.8,2071.5l-40.2-34.4l-5.7-2545.7l-3.8-2545.7l-379-591.5L100-4237.3v-256.5c0-246.9,1.9-258.4,47.9-302.4l45.9-47.9H5000h4806.2l45.9,47.9c45.9,44,47.9,55.5,47.9,302.4v256.5l-377.1,591.4l-379,591.5l-3.8,2545.7l-3.8,2545.7l-42.1,34.4c-38.3,30.6-262.2,32.5-4094.2,32.5C1168,2104,944.1,2102.1,905.8,2071.5z M8885.5-594.8v-2430.9H5000H1114.5v2430.9v2430.9H5000h3885.5V-594.8z M9226.2-3674.5c181.8-283.3,329.2-520.6,329.2-526.4c0-5.7-2050-11.5-4555.5-11.5c-2505.5,0-4555.5,5.7-4555.5,11.5c0,7.7,147.4,243.1,329.2,526.4l327.3,514.9H5000h3897L9226.2-3674.5z M9632-4461.2v-114.8H5000H368v114.8v114.8h4632h4632V-4461.2z"/><path d="M1462.8,1487.7c-32.5-32.5-32.5-4113.3,0-4145.9c32.5-32.5,7041.8-32.5,7074.4,0c32.5,32.5,32.5,4113.3,0,4145.9C8504.6,1520.2,1495.4,1520.2,1462.8,1487.7z M8426.2-585.2v-1961.9H5000H1573.8v258.4v258.4l1738,3.8l1736.1,5.7l5.7,45.9c3.8,24.9-3.8,53.6-19.1,61.2c-13.4,9.6-798.2,17.2-1741.8,17.2H1573.8v1272.9V649.3l436.4,3.8l434.5,5.7l5.7,45.9c3.8,24.9-3.8,53.6-19.1,61.3c-13.4,9.6-212.5,17.2-440.2,17.2h-417.3V1080v296.7H5000h3426.2V-585.2z"/><path d="M5585.7-1927c-17.2-15.3-30.6-36.4-30.6-44c0-55.5,59.3-59.3,767.5-59.3c633.6,0,723.5,3.8,746.5,30.6c17.2,21.1,19.1,38.3,3.8,61.3c-17.2,28.7-91.9,32.5-738.8,38.3C5700.5-1896.4,5612.5-1900.2,5585.7-1927z"/><path d="M3499.4-3835.3c-19.1-13.4-30.6-42.1-26.8-63.2c5.7-34.5,30.6-36.4,689.1-42.1l683.3-3.8l13.4,42.1c26.8,86.1-9.6,91.9-691,91.9C3673.6-3810.4,3526.2-3816.2,3499.4-3835.3z"/><path d="M5164.6-3835.3c-24.9-19.1-30.6-38.3-22.9-67l13.4-42.1l683.3,3.8c658.4,5.7,683.3,7.6,689.1,42.1c17.2,82.3-24.9,88-694.8,88C5336.9-3810.4,5191.4-3816.2,5164.6-3835.3z"/></g></g>
</svg>