<?xml version="1.0" encoding="utf-8"?>
<!-- Svg Vector Icons : http://www.onlinewebfonts.com/icon -->
<!DOCTYPE svg PUBLIC "-//W3C//DTD SVG 1.1//EN" "http://www.w3.org/Graphics/SVG/1.1/DTD/svg11.dtd">
<svg version="1.1" xmlns="http://www.w3.org/2000/svg" xmlns:xlink="http://www.w3.org/1999/xlink" x="0px" y="0px" viewBox="0 0 1000 1000" enable-background="new 0 0 1000 1000" xml:space="preserve">
<metadata> Svg Vector Icons : http://www.onlinewebfonts.com/icon </metadata>
<g><g transform="translate(0.000000,511.000000) scale(0.100000,-0.100000)"><path d="M4678.9,3700.6c-516.2-185.5-649.4-839.7-245-1210.7c54.7-52.3,138-109.4,180.8-126.1c73.7-30.9,78.5-40.4,71.4-128.4l-7.1-97.5l-273.5-40.4c-730.2-104.7-1367.7-387.7-1941-856.3C1646.1,572.7,1106.2-573.8,1058.6-1734.6l-14.3-352H880.2H716.1l7.1-218.8l7.1-221.2l4276.8-7.1l4274.4-4.8v226v226h-214.1h-214.1v199.8c0,259.3-54.7,673.2-128.5,977.6C8422.9,325.3,7704.5,1241.1,6629.4,1754.9c-406.7,195.1-851.6,323.5-1236.9,356.8c-273.6,23.8-273.6,23.8-273.6,128.4c0,80.9,9.5,95.1,78.5,123.7c40.4,16.6,123.7,73.7,178.4,126.1c468.6,430.5,202.2,1201.2-428.2,1241.7C4843,3738.7,4762.1,3729.2,4678.9,3700.6z M5085.6,3208.2c69-69,80.9-97.5,80.9-192.7c0-90.4-11.9-123.7-69-178.4c-38-38.1-95.1-76.1-130.8-85.6c-90.4-21.4-176,7.1-254.5,85.6c-57.1,54.7-69,88-69,178.4c0,95.1,11.9,123.7,80.9,192.7c66.6,66.6,99.9,80.9,180.8,80.9C4985.7,3289.1,5019,3274.8,5085.6,3208.2z M5689.8,1614.6c333-76.1,554.2-159.4,858.7-316.4C7609.4,751.1,8273-305,8401.5-1646.6c11.9-142.7,23.8-302.1,23.8-349.7v-90.4H4952.4H1479.6v149.9c0,696.9,256.9,1555.6,635.1,2133.6C2640.4,998.5,3508.6,1524.2,4560,1681.1c40.4,4.8,254.5,7.1,475.7,2.4C5359.2,1676.4,5490,1662.1,5689.8,1614.6z"/><path d="M3596.6,860.5c-535.2-283.1-903.9-666-1156-1196.5C2335.9-559.5,2217-961.5,2217-1099.5c0-104.7,90.4-178.4,216.5-178.4c135.6,0,199.8,71.4,245,278.3c142.7,666,568.5,1196.4,1220.2,1527.1c126.1,61.9,173.6,130.8,173.6,247.4c0,111.8-85.6,206.9-183.2,206.9C3853.5,981.8,3720.3,927.1,3596.6,860.5z"/><path d="M100-3299.7v-214.1h4900h4900v214.1v214.1H5000H100V-3299.7z"/></g></g>
</svg>