<?xml version="1.0" encoding="utf-8"?>
<!-- Svg Vector Icons : http://www.onlinewebfonts.com/icon -->
<!DOCTYPE svg PUBLIC "-//W3C//DTD SVG 1.1//EN" "http://www.w3.org/Graphics/SVG/1.1/DTD/svg11.dtd">
<svg version="1.1" xmlns="http://www.w3.org/2000/svg" xmlns:xlink="http://www.w3.org/1999/xlink" x="0px" y="0px" viewBox="0 0 1000 1000" enable-background="new 0 0 1000 1000" xml:space="preserve">
<metadata> Svg Vector Icons : http://www.onlinewebfonts.com/icon </metadata>
<g><path d="M132,392.5c38.1-9.6,43.1-62.6,41.6-105.2c-1.7-42.6-35.4-70-65.6-68.8c-41.4,1.7-67.1,37.2-65.6,79.7C52.5,367.1,104.1,399.5,132,392.5z"/><path d="M180.1,493.9c0,0-10.2-29.4-27.5-48.1c-3.3-3.6,20,103.8,17.9,99.2c-25.3-52.9-63-106.9-74-113.1c-11.2-6.1-22.8-10.3-34.9-10.7c-16.7,7.5-40.4,29.8-47.3,73.3C12,563.4,10,632.4,10,772.8h93.2l106.1-164C195.7,535.4,190.5,533.6,180.1,493.9z"/><path d="M868,392.5c28.1,7,79.7-25.3,89.6-94.2c1.7-42.5-24-78.1-65.4-79.8c-30.2-1.2-63.9,26.2-65.6,68.8C825,329.9,830,382.9,868,392.5z"/><path d="M985.8,494.6c-7.1-43.6-30.7-65.8-47.2-73.3c-12.1,0.3-23.9,4.5-35,10.7c-11,6.2-48.8,60.2-74,113.1c-2.2,4.5,21.1-102.9,17.8-99.3c-17.4,18.7-27.6,48.1-27.6,48.1c-10.2,39.7-15.5,41.5-29.3,114.9l106.2,164.1H990C990.1,632.3,988.2,563.4,985.8,494.6z"/><path d="M392,538c2.2-39.9,13-96.9,18.3-99.1h0.2v118.7h186.2V449.4c0.5,0.7,0.8,1.5,1.3,2c7.9,12.4,16.2,25.1,24,35.5c3.7,5.2,7.3,9.8,11.2,14.1c2,2.1,3.9,4.3,6.7,6.6c1.5,1,3,2.3,4.9,3.6c2.2,1.3,4.9,2.9,9,4c3.6,1,6.8,1.3,9.5,1.3c7.6-0.1,11.9-1.9,15.4-3.3c3.3-1.4,5.9-2.9,8.2-4.3c4.4-2.9,8.3-5.8,12.3-9.2c6.8-5.8,13.8-12.5,20.8-19.6c21.1-20.9,41.5-44.7,41.7-45c11.2-13,9.8-32.7-3.2-43.8c-13-11.2-32.6-9.6-43.8,3.3l-0.1,0.1c-1.6,1.9-16.6,19.3-32.5,35.6c-4.8,5.2-9.8,10-14.3,14.3c-2.8-3.9-5.7-8.3-8.8-12.8c-9-13.6-18.3-28.8-25.4-40.5c-3.8-5.9-6.7-10.9-8.8-14.4c-1.1-1.7-1.9-3.1-2.4-4.2c-0.5-0.8-0.8-1.4-0.8-1.4c-1.5-2.6-3.5-4.9-5.6-6.8c-3-4.7-13.2-10.7-44-19.6c-7.9-2.5-15-4.5-21.5-5.9v0.1v-0.1c-1.3,15.3-6.7,51.8-28.3,96.5c-3.5-29.3-8.6-56-9.1-58.7l7.9-18.4l-12.8-12.2H499l-12.8,12.3l7.9,18.4c-0.4,2.6-5.7,29.3-9.1,58.6c-21.7-44.7-27-81.2-28.2-96.5l-0.1,0.1v-0.1c-6.6,1.4-12.6,3.6-17.8,6.6c-19.2,6.2-46.2,15.8-61.7,24.3c-7.5,7.8-34.6,45-43.9,164.7c-0.3,6.8-0.6,14.6-0.3,23.1h58.5C391.5,551,391.6,544.4,392,538z"/><path d="M438.3,264.5c9.1,33.8,31,64.5,66.3,64.5c35.6,0,57.4-30.9,66.6-65.1c10-4.1,16.2-18.7,14.8-29.5c-0.7-7-4.5-10.9-10-12.7c-2.2-41.8-29.7-75.1-71.3-75.1c-41.3,0-68.8,33-71.2,74.6c-6.4,1.5-10.9,5.3-11.8,13.1C419.9,245.9,427.1,261.7,438.3,264.5z"/><path d="M709.9,572.7c1.8,1.9,3.8,4.3,6,7.1l134,221.5c0.1,1.9-0.1,3.3-0.3,4.1l-698.4-0.6c-0.1-0.8-0.4-2.1-0.1-3.8l135.8-221.9c1.5-2.4,3.1-4.5,4.5-6.4H261L108.6,810.5v42c0.8,0.1,1.4,0.3,2.1,0.3l779.3,0.6c0.5,0,1-0.1,1.5-0.3v-43.7l-150-236.7L709.9,572.7L709.9,572.7z"/></g>
</svg>