<?xml version="1.0" encoding="utf-8"?>
<!-- Generator: Adobe Illustrator 20.0.0, SVG Export Plug-In . SVG Version: 6.00 Build 0)  -->
<svg version="1.1"  xmlns="http://www.w3.org/2000/svg" xmlns:xlink="http://www.w3.org/1999/xlink" x="0px" y="0px"
	 viewBox="0 0 74.6 50" style="enable-background:new 0 0 74.6 50;" xml:space="preserve">
<style type="text/css">
	.st0{opacity:0.6;fill:url(#SVGID_1_);}
	.st1{opacity:0.7;fill:url(#SVGID_2_);}
	.st2{opacity:0.5;fill:url(#SVGID_3_);}
	.st3{opacity:0.8;fill:url(#SVGID_4_);}
	.st4{opacity:0.9;fill:url(#SVGID_5_);}
	.st5{fill:url(#SVGID_6_);}
	.st6{fill:url(#SVGID_7_);}
</style>
<g>
	<g>
		<linearGradient id="SVGID_1_" gradientUnits="userSpaceOnUse" x1="5.8224" y1="16.6176" x2="22.0301" y2="16.6176">
			<stop  offset="0" style="stop-color:#662D91"/>
			<stop  offset="1" style="stop-color:#262261"/>
		</linearGradient>
		<path class="st0" d="M22,17.2c0-0.2-0.1-0.5-0.2-0.6l-6.9-7.8c-0.2-0.2-0.4-0.3-0.6-0.3c-0.2,0-0.5,0.1-0.6,0.2
			c-3.2,2.8-5.8,6-7.8,9.7c-0.1,0.2-0.1,0.4-0.1,0.7c0.1,0.2,0.2,0.4,0.4,0.5l9.1,5c0.1,0.1,0.3,0.1,0.4,0.1c0.3,0,0.6-0.2,0.8-0.5
			c1.3-2.4,3.1-4.6,5.2-6.4C21.9,17.7,22,17.5,22,17.2z"/>
		<linearGradient id="SVGID_2_" gradientUnits="userSpaceOnUse" x1="20.1163" y1="7.4843" x2="34.8452" y2="7.4843">
			<stop  offset="0" style="stop-color:#662D91"/>
			<stop  offset="1" style="stop-color:#262261"/>
		</linearGradient>
		<path class="st1" d="M25.1,14.4c0.2,0.3,0.5,0.5,0.8,0.5c0.1,0,0.3,0,0.4-0.1c2.4-1.3,5.1-2.1,7.8-2.5c0.5-0.1,0.8-0.5,0.7-1
			L33.4,0.9c-0.1-0.5-0.5-0.8-1-0.7C28.3,0.7,24.3,2,20.6,4c-0.4,0.2-0.6,0.7-0.4,1.2L25.1,14.4z"/>
		<linearGradient id="SVGID_3_" gradientUnits="userSpaceOnUse" x1="1.5678" y1="31.8105" x2="14.562" y2="31.8105">
			<stop  offset="0" style="stop-color:#662D91"/>
			<stop  offset="1" style="stop-color:#262261"/>
		</linearGradient>
		<path class="st2" d="M13.9,28.3l-10-2.7c-0.2-0.1-0.5,0-0.7,0.1C3,25.8,2.9,26,2.8,26.2c-0.8,3-1.2,6.2-1.2,9.4c0,0.5,0,1.1,0,1.7
			c0,0.5,0.4,0.8,0.9,0.8c0,0,0,0,0,0l10.4-0.5c0.2,0,0.4-0.1,0.6-0.3c0.2-0.2,0.2-0.4,0.2-0.6c0-0.4,0-0.8,0-1.1
			c0-2.1,0.3-4.2,0.8-6.2C14.7,28.9,14.4,28.4,13.9,28.3z"/>
		<linearGradient id="SVGID_4_" gradientUnits="userSpaceOnUse" x1="38.8285" y1="7.1952" x2="53.2937" y2="7.1952">
			<stop  offset="0" style="stop-color:#662D91"/>
			<stop  offset="1" style="stop-color:#262261"/>
		</linearGradient>
		<path class="st3" d="M52.8,3.4C49,1.5,45,0.4,40.8,0c-0.2,0-0.5,0-0.6,0.2c-0.2,0.1-0.3,0.4-0.3,0.6l-1,10.4
			c0,0.5,0.3,0.9,0.8,0.9c2.8,0.3,5.4,1,7.9,2.2c0.1,0.1,0.2,0.1,0.4,0.1c0.1,0,0.2,0,0.3,0c0.2-0.1,0.4-0.2,0.5-0.4l4.5-9.4
			C53.4,4.1,53.2,3.6,52.8,3.4z"/>
		<linearGradient id="SVGID_5_" gradientUnits="userSpaceOnUse" x1="51.8553" y1="15.777" x2="68.1168" y2="15.777">
			<stop  offset="0" style="stop-color:#662D91"/>
			<stop  offset="1" style="stop-color:#262261"/>
		</linearGradient>
		<path class="st4" d="M68.1,17.9c0.1-0.2,0-0.5-0.1-0.7c-2.2-3.6-4.9-6.8-8.2-9.4c-0.2-0.1-0.4-0.2-0.6-0.2c-0.2,0-0.4,0.1-0.6,0.3
			L52,16c-0.1,0.2-0.2,0.4-0.2,0.6c0,0.2,0.1,0.4,0.3,0.6c2.2,1.8,4,3.9,5.4,6.2c0.2,0.3,0.5,0.4,0.7,0.4c0.2,0,0.3,0,0.4-0.1
			l8.9-5.3C67.9,18.3,68,18.1,68.1,17.9z"/>
		<linearGradient id="SVGID_6_" gradientUnits="userSpaceOnUse" x1="59.7802" y1="31.1669" x2="73.0374" y2="31.1669">
			<stop  offset="0" style="stop-color:#662D91"/>
			<stop  offset="1" style="stop-color:#262261"/>
		</linearGradient>
		<path class="st5" d="M71.4,24.9c-0.1-0.5-0.6-0.7-1.1-0.6l-9.9,3.1c-0.5,0.1-0.7,0.6-0.6,1.1c0.7,2.3,1.1,4.7,1.1,7.1
			c0,0.4,0,0.7,0,1.1c0,0.2,0.1,0.5,0.2,0.6c0.2,0.2,0.4,0.3,0.6,0.3l10.4,0.5c0,0,0,0,0,0c0.5,0,0.8-0.4,0.9-0.8c0-0.6,0-1.1,0-1.7
			C73,31.9,72.5,28.3,71.4,24.9z"/>
		<linearGradient id="SVGID_7_" gradientUnits="userSpaceOnUse" x1="21.3888" y1="37.6528" x2="45.4069" y2="37.6528">
			<stop  offset="0" style="stop-color:#662D91"/>
			<stop  offset="1" style="stop-color:#262261"/>
		</linearGradient>
		<path class="st6" d="M37.3,33.7c-0.1,0-0.3,0-0.4,0l-14.1-8.3c-0.3-0.2-0.8-0.2-1.1,0.1c-0.3,0.3-0.4,0.7-0.2,1.1L29.2,41
			c0,0.3,0,0.6,0,0.8c0,2.2,0.8,4.2,2.4,5.8c1.5,1.5,3.6,2.4,5.8,2.4s4.2-0.8,5.8-2.4c1.5-1.5,2.4-3.6,2.4-5.8
			c0-2.2-0.8-4.2-2.4-5.8C41.5,34.6,39.4,33.7,37.3,33.7z"/>
	</g>
</g>
</svg>
