<?xml version="1.0" encoding="utf-8"?>
<!-- Generator: Adobe Illustrator 20.0.0, SVG Export Plug-In . SVG Version: 6.00 Build 0)  -->
<svg version="1.1"  xmlns="http://www.w3.org/2000/svg" xmlns:xlink="http://www.w3.org/1999/xlink" x="0px" y="0px"
	 viewBox="0 0 55.1 50" style="enable-background:new 0 0 55.1 50;" xml:space="preserve">
<style type="text/css">
	.st0{opacity:0.5;fill:url(#SVGID_1_);}
	.st1{fill:url(#SVGID_2_);}
</style>
<g>
	<linearGradient id="SVGID_1_" gradientUnits="userSpaceOnUse" x1="8.3624" y1="28.3215" x2="47.224" y2="28.3215">
		<stop  offset="0" style="stop-color:#662D91"/>
		<stop  offset="1" style="stop-color:#262261"/>
	</linearGradient>
	<path class="st0" d="M27.8,8.9c-10.7,0-19.4,8.7-19.4,19.4c0,10.7,8.7,19.4,19.4,19.4s19.4-8.7,19.4-19.4
		C47.2,17.6,38.5,8.9,27.8,8.9z M31.8,24.3c0-2,1.7-3.7,3.7-3.7c2,0,3.7,1.7,3.7,3.7l0,0c0,2-1.7,3.7-3.7,3.7
		C33.5,28,31.8,26.3,31.8,24.3L31.8,24.3z M16.5,24.3c0-2,1.7-3.7,3.7-3.7s3.7,1.7,3.7,3.7l0,0c0,2-1.7,3.7-3.7,3.7
		S16.5,26.3,16.5,24.3L16.5,24.3z M27.9,43.4c-5.7,0-10.5-3.2-11.9-9.7c0-0.2,0.1-0.4,0.3-0.4h11.2h12c0.2,0,0.4,0.2,0.3,0.4
		C38.4,40.2,33.6,43.4,27.9,43.4z"/>
	<linearGradient id="SVGID_2_" gradientUnits="userSpaceOnUse" x1="1.368" y1="25" x2="53.6861" y2="25">
		<stop  offset="0" style="stop-color:#662D91"/>
		<stop  offset="1" style="stop-color:#262261"/>
	</linearGradient>
	<path class="st1" d="M53.7,26.8c0-4,0-7.2-3.9-7.3c-0.3-0.4-0.7-0.8-1.2-1C49.2,9,41,1.5,30.7,0.3c-1.3-0.2-1.9-0.2-3.2-0.3
		C12.4,0.4,5.9,10.8,6.5,18.5c-0.5,0.2-0.9,0.6-1.2,1c-3.9,0.1-3.9,3.3-3.9,7.3c0,4,0,7.2,3.9,7.3c0.5,0.8,1.4,1.4,2.5,1.4
		c1.6,0,2.2-1.3,2.2-2.9V21.1c0-1,0.3-1.9-0.5-2.4c1.3-7.1,7.7-15.1,18.1-15.2c0.6,0,2,0,2.5,0.2c5.1,0.5,13.7,5.5,15.5,15
		c-0.7,0.5-0.5,1.4-0.5,2.4v11.4c0,1.2,0,2.3,1.1,2.7v1.2c0,3.3-2.2,6.1-5.3,6.9L32,45.8c-0.5-0.6-1.2-1.1-2.1-1.1
		c-1.5,0-2.6,1.2-2.6,2.6c0,1.5,1.2,2.6,2.6,2.6c1.3,0,2.4-1,2.6-2.3l8.9-2.4c4-1.1,6.8-4.3,6.8-10c0.7-0.2,1.2-0.6,1.6-1.2
		C53.7,34,53.7,30.8,53.7,26.8z"/>
</g>
</svg>
