<?xml version="1.0" encoding="utf-8"?>
<!-- Svg Vector Icons : http://www.onlinewebfonts.com/icon -->
<!DOCTYPE svg PUBLIC "-//W3C//DTD SVG 1.1//EN" "http://www.w3.org/Graphics/SVG/1.1/DTD/svg11.dtd">
<svg version="1.1" xmlns="http://www.w3.org/2000/svg" xmlns:xlink="http://www.w3.org/1999/xlink" x="0px" y="0px" viewBox="0 0 1000 1000" enable-background="new 0 0 1000 1000" xml:space="preserve">
<metadata> Svg Vector Icons : http://www.onlinewebfonts.com/icon </metadata>
<g><g><path d="M686.2,950.8c0,21.7-17.5,39.2-39.2,39.2H353c-21.7,0-39.2-17.5-39.2-39.2c0-21.7,17.5-39.2,39.2-39.2h107.8V551.6c-32.4-14.9-55-47.4-55-85.4c0-52.1,42.2-94.2,94.2-94.2s94.2,42.1,94.2,94.2c0,38-22.6,70.6-55,85.4v360H647C668.7,911.6,686.2,929.1,686.2,950.8z M500,10C248.5,10,43.8,214.7,43.8,466.2c0,121.8,47.5,236.4,133.7,322.6c15.3,15.3,40.1,15.3,55.5,0c15.3-15.4,15.3-40.1,0-55.4C161.5,662,122.2,567.2,122.2,466.2c0-208.3,169.4-377.8,377.8-377.8c208.4,0,377.8,169.4,377.8,377.8c0,100.9-39.3,195.8-110.6,267.2c-15.3,15.3-15.3,40.1,0,55.5c7.6,7.6,17.7,11.5,27.7,11.5c10,0,20.1-3.8,27.7-11.5c86.1-86.2,133.6-200.8,133.6-322.7C956.2,214.7,751.6,10,500,10z M500,198.4c-147.8,0-267.9,120.1-267.9,267.9c0,71.5,27.9,138.9,78.5,189.4c15.4,15.3,40.1,15.3,55.5,0c15.4-15.3,15.4-40.2,0-55.5c-35.8-35.8-55.5-83.3-55.5-134c0-104.5,85-189.4,189.4-189.4c104.4,0,189.4,84.9,189.4,189.4c0,50.6-19.7,98.2-55.5,134c-15.4,15.3-15.4,40.1,0,55.5c7.6,7.6,17.7,11.5,27.7,11.5c10,0,20.1-3.8,27.7-11.5c50.6-50.6,78.5-117.9,78.5-189.4C767.9,318.5,647.8,198.4,500,198.4z"/></g><g></g><g></g><g></g><g></g><g></g><g></g><g></g><g></g><g></g><g></g><g></g><g></g><g></g><g></g><g></g></g>
</svg>